<svg width="250" height="250" viewBox="0 0 250 250" fill="none" xmlns="http://www.w3.org/2000/svg">
<circle cx="125" cy="125" r="125" fill="white"/>
<path fill-rule="evenodd" clip-rule="evenodd" d="M129.894 62C122.172 62 115.911 68.2601 115.911 75.9823V113.735C115.911 115.665 117.477 117.23 119.407 117.23H126.398C128.329 117.23 129.894 115.665 129.894 113.735V62ZM134.788 75.9823V62H200.504C202.435 62 204 63.565 204 65.4956V68.9912C204 72.8523 200.87 75.9823 197.009 75.9823H134.788ZM134.788 187.841V173.858H197.009C200.87 173.858 204 176.988 204 180.85V184.345C204 186.276 202.435 187.841 200.504 187.841H134.788ZM134.788 117.23V131.212H187.92C191.781 131.212 194.912 128.082 194.912 124.221C194.912 120.36 191.781 117.23 187.92 117.23H134.788ZM46 63.9702C46 63.2682 46.5691 62.6991 47.2711 62.6991C54.2913 62.6991 59.9823 68.3901 59.9823 75.4103V117.929L115.911 117.929C123.634 117.929 129.894 124.189 129.894 131.912V175.13C129.894 182.15 124.203 187.841 117.183 187.841C116.481 187.841 115.911 187.272 115.911 186.57V131.912H59.9823V184.345C59.9823 186.276 58.4173 187.841 56.4867 187.841H49.4956C47.565 187.841 46 186.276 46 184.345V63.9702Z" fill="#100F0F"/>
</svg>
